<svg xmlns="http://www.w3.org/2000/svg" xmlns:xlink="http://www.w3.org/1999/xlink" width="500" zoomAndPan="magnify" viewBox="0 0 375 374.999991" height="500" preserveAspectRatio="xMidYMid meet" version="1.0"><defs><g/><clipPath id="bd276b7a85"><path d="M 28.804688 28.804688 L 346.195312 28.804688 L 346.195312 346.195312 L 28.804688 346.195312 Z M 28.804688 28.804688 " clip-rule="nonzero"/></clipPath><clipPath id="c6ea9f7d54"><path d="M 187.5 28.804688 C 275.144531 28.804688 346.195312 99.855469 346.195312 187.5 C 346.195312 275.144531 275.144531 346.195312 187.5 346.195312 C 99.855469 346.195312 28.804688 275.144531 28.804688 187.5 C 28.804688 99.855469 99.855469 28.804688 187.5 28.804688 L 187.5 70.066406 C 122.644531 70.066406 70.066406 122.644531 70.066406 187.5 C 70.066406 252.355469 122.644531 304.933594 187.5 304.933594 C 252.355469 304.933594 304.933594 252.355469 304.933594 187.5 C 304.933594 122.644531 252.355469 70.066406 187.5 70.066406 Z M 187.5 28.804688 " clip-rule="nonzero"/></clipPath><clipPath id="2fb79d94b9"><path d="M 39 30.046875 L 347 30.046875 L 347 347 L 39 347 Z M 39 30.046875 " clip-rule="nonzero"/></clipPath><clipPath id="432794a81c"><path d="M 211.210938 30.585938 C 286.816406 42.011719 343.519531 105.722656 346.101562 182.140625 C 348.6875 258.558594 296.410156 325.949219 221.75 342.453125 C 147.09375 358.957031 71.28125 319.875 41.414062 249.492188 C 36.964844 239 41.859375 226.890625 52.347656 222.441406 C 62.835938 217.988281 74.945312 222.882812 79.398438 233.371094 C 101.5 285.457031 157.597656 314.378906 212.847656 302.164062 C 268.09375 289.953125 306.777344 240.082031 304.867188 183.535156 C 302.957031 126.984375 260.992188 79.839844 205.046875 71.386719 C 193.78125 69.683594 186.027344 59.167969 187.730469 47.902344 C 189.433594 36.636719 199.945312 28.886719 211.210938 30.585938 Z M 211.210938 30.585938 " clip-rule="nonzero"/></clipPath></defs><g clip-path="url(#bd276b7a85)"><g clip-path="url(#c6ea9f7d54)"><path fill="#ff914d" d="M 28.804688 28.804688 L 346.195312 28.804688 L 346.195312 346.195312 L 28.804688 346.195312 Z M 28.804688 28.804688 " fill-opacity="1" fill-rule="nonzero"/></g></g><g clip-path="url(#2fb79d94b9)"><g clip-path="url(#432794a81c)"><path fill="#ff5757" d="M 28.804688 28.804688 L 346.195312 28.804688 L 346.195312 346.195312 L 28.804688 346.195312 Z M 28.804688 28.804688 " fill-opacity="1" fill-rule="nonzero"/></g></g><g fill="#ffffff" fill-opacity="1"><g transform="translate(105.456134, 235.944136)"><g><path d="M 161.1875 -88.125 L 154.015625 -88.125 L 154.015625 -23.546875 L 161.1875 -23.546875 L 161.1875 0 L 106.9375 0 L 106.9375 -23.546875 L 113.828125 -23.546875 L 113.828125 -73.78125 L 89.421875 0 L 68.171875 0 L 43.0625 -73.0625 L 43.0625 -23.546875 L 49.953125 -23.546875 L 49.953125 0 L 2.875 0 L 2.875 -23.546875 L 10.046875 -23.546875 L 10.046875 -88.125 L 2.875 -88.125 L 2.875 -111.671875 L 68.609375 -111.671875 L 83.53125 -66.890625 L 97.890625 -111.671875 L 161.1875 -111.671875 Z M 161.1875 -88.125 "/></g></g></g></svg>